# xmcd
#
# Track frame offsets:
#	150
#	13476
#	29419
#	45983
#	61185
#	77470
#	92248
#	106799
#	120384
#	132210
#	145141
#	156750
#	168771
#	182432
#	197356
#	209320
#	223137
#	236596
#	249143
#	260404
#	274289
#	287151
#	300930
#	314460
#	327443
#
# Disc length: 4509 seconds
# Revision: 1
# Processed by: cddbd v1.5.2PL0 Copyright (c) Steve Scherf et al.
# Submitted via: dBpowerAMP V12.0
#
DISCID=53119b19
DTITLE=Various Artist - Let Me Tell You About The Blues - West Coast
DYEAR=1942
DGENRE=Blues
TTITLE0=T-Bone Walker - Mean Old World
TTITLE1=Saunders King - SK Blues (Part 1)
TTITLE2=Cecil Gant - I Wonder
TTITLE3=The Blues Man (George Vann) - My Baby's Blues
TTITLE4=Joe Liggins - The Honeydripper (Part 1)
TTITLE5=Charles Brown - Drifting Blues
TTITLE6=Johnny Otis Orchestra - Jimmy's Round The Clock Blues
TTITLE7=Jim Wynn's Bobalibans - Shipyard Woman
TTITLE8=Johnny Alston Orchestra - Everything Will Be All Right
TTITLE9=Alton Redd - When The Sun Goes Down
TTITLE10=Buddy Banks Sextet - Fluffy's Debut
TTITLE11=Camille Howard with Roy Milton and His Solid Senders - Groovy Blues
TTITLE12=Roy Milton - RM Blues
TTITLE13=Big Joe Turner - My Gal's A Jockey
TTITLE14=Lowell Fulson - Crying Blues
TTITLE15=Gene Phillips - Stinkin' Drunk
TTITLE16=Jack McVea's All Stars - Open The Door Richard
TTITLE17=Helen Humes - Be Ba Ba Le Ba Boogie
TTITLE18=Joe Lutcher - Rockin' Boogie
TTITLE19=T-Bone Walker - Call It Stormy Monday
TTITLE20=Little Willie Jackson - Jackson's Boogie
TTITLE21=Julia Lee - I Didn't Like It The First Time
TTITLE22=Jimmy Witherspoon - Ain't Nobody's Business (Part 1)
TTITLE23=Amos Milburn - Chicken Shack Boogie
TTITLE24=Crown Prince Waterford - Move Your Hand Baby
EXTD=
EXTT0=
EXTT1=
EXTT2=
EXTT3=
EXTT4=
EXTT5=
EXTT6=
EXTT7=
EXTT8=
EXTT9=
EXTT10=
EXTT11=
EXTT12=
EXTT13=
EXTT14=
EXTT15=
EXTT16=
EXTT17=
EXTT18=
EXTT19=
EXTT20=
EXTT21=
EXTT22=
EXTT23=
EXTT24=
PLAYORDER=
